<svg width="93" height="93" fill="none" xmlns="http://www.w3.org/2000/svg"><g filter="url(#filter0_d)"><path d="M89 16.291L69.45 0l-5.483 6.457 19.55 16.291L89 16.291zM28.99 6.457L23.55 0 4 16.249l5.482 6.457L28.99 6.457zM46.5 9.032c-21.122 0-38.25 17.008-38.25 37.984C8.25 67.992 25.335 85 46.5 85c21.123 0 38.25-17.008 38.25-37.984 0-20.976-17.127-37.984-38.25-37.984zm0 67.527c-16.448 0-29.75-13.21-29.75-29.543S30.052 17.473 46.5 17.473c16.447 0 29.75 13.21 29.75 29.543S62.947 76.559 46.5 76.559zm-6.205-23.086l-9.053-8.99-4.505 4.474 13.515 13.421 25.5-25.322-4.504-4.474-20.953 20.891z" fill="#DFDBD2"/></g><defs><filter id="filter0_d" x="0" y="0" width="93" height="93" filterUnits="userSpaceOnUse" color-interpolation-filters="sRGB"><feFlood flood-opacity="0" result="BackgroundImageFix"/><feColorMatrix in="SourceAlpha" values="0 0 0 0 0 0 0 0 0 0 0 0 0 0 0 0 0 0 127 0"/><feOffset dy="4"/><feGaussianBlur stdDeviation="2"/><feColorMatrix values="0 0 0 0 0 0 0 0 0 0 0 0 0 0 0 0 0 0 0.25 0"/><feBlend in2="BackgroundImageFix" result="effect1_dropShadow"/><feBlend in="SourceGraphic" in2="effect1_dropShadow" result="shape"/></filter></defs></svg>