<svg width="93" height="93" fill="none" xmlns="http://www.w3.org/2000/svg"><g filter="url(#filter0_d)"><path d="M82.236 17.895h-9.642c.487-1.387.796-2.908.796-4.474C73.39 5.995 67.464 0 60.122 0c-4.644 0-8.669 2.416-11.057 6.04l-2.211 2.997-2.212-3.042C42.254 2.415 38.23 0 33.586 0c-7.342 0-13.269 5.995-13.269 13.421 0 1.566.31 3.087.796 4.474h-9.641c-4.91 0-7.285 3.981-7.285 8.947v49.21C3.147 81 6.563 85 11.472 85h70.764C87.145 85 89 81.018 89 76.053v-49.21c0-4.967-1.855-8.948-6.764-8.948zM60.122 8.947c2.433 0 4.423 2.014 4.423 4.474 0 2.46-1.99 4.474-4.423 4.474-2.432 0-4.423-2.013-4.423-4.474 0-2.46 1.99-4.474 4.423-4.474zm-26.536 0c2.432 0 4.422 2.014 4.422 4.474 0 2.46-1.99 4.474-4.422 4.474-2.433 0-4.423-2.013-4.423-4.474 0-2.46 1.99-4.474 4.423-4.474zm48.65 67.106H11.472V63.5h70.764v12.553zm0-22.369H11.472V24.5h24.455L24.74 39.503l7.165 5.234L42.43 30.242l4.423-6.084 4.422 6.084 10.527 14.495 7.165-5.234L58.82 24.5h22.895l.52 29.184z" fill="#DFDBD2"/></g><defs><filter id="filter0_d" x="0" y="0" width="93" height="93" filterUnits="userSpaceOnUse" color-interpolation-filters="sRGB"><feFlood flood-opacity="0" result="BackgroundImageFix"/><feColorMatrix in="SourceAlpha" values="0 0 0 0 0 0 0 0 0 0 0 0 0 0 0 0 0 0 127 0"/><feOffset dy="4"/><feGaussianBlur stdDeviation="2"/><feColorMatrix values="0 0 0 0 0 0 0 0 0 0 0 0 0 0 0 0 0 0 0.25 0"/><feBlend in2="BackgroundImageFix" result="effect1_dropShadow"/><feBlend in="SourceGraphic" in2="effect1_dropShadow" result="shape"/></filter></defs></svg>