<svg width="89" height="87" fill="none" xmlns="http://www.w3.org/2000/svg"><g filter="url(#filter0_d)"><path d="M75.645 0L89 26.563H74.08L63.87 0h11.776zM56.756 0l10.212 26.563H26.032L36.244 0h20.512zM17.355 0h11.776L18.92 26.563H4L17.355 0zM4 31.875h14.86l18.151 41.786c.222.515-.398.98-.738.548L4 31.875zm21.87 0h41.26L46.913 84.701a.425.425 0 01-.811 0L25.87 31.875zm30.119 41.786l18.15-41.786H89L56.727 74.192c-.34.449-.96-.016-.738-.53z" fill="#DFDBD2"/></g><defs><filter id="filter0_d" x="0" y="0" width="93" height="93" filterUnits="userSpaceOnUse" color-interpolation-filters="sRGB"><feFlood flood-opacity="0" result="BackgroundImageFix"/><feColorMatrix in="SourceAlpha" values="0 0 0 0 0 0 0 0 0 0 0 0 0 0 0 0 0 0 127 0"/><feOffset dy="4"/><feGaussianBlur stdDeviation="2"/><feColorMatrix values="0 0 0 0 0 0 0 0 0 0 0 0 0 0 0 0 0 0 0.25 0"/><feBlend in2="BackgroundImageFix" result="effect1_dropShadow"/><feBlend in="SourceGraphic" in2="effect1_dropShadow" result="shape"/></filter></defs></svg>